<svg width="80" height="80" viewBox="0 0 80 80" fill="none" xmlns="http://www.w3.org/2000/svg">
<path d="M47.7464 67.1525H32.2464V55.1106C32.2464 53.4512 31.3385 51.9712 29.8992 51.1864C23.1235 47.4191 18.6064 39.9743 18.9828 31.4979C19.4699 20.5325 28.5264 11.5179 39.3542 11.1816C51.2671 10.8228 61.0321 20.4876 61.0321 32.4846C61.0321 40.5349 56.6257 47.5537 50.0935 51.164C48.6542 51.9713 47.7464 53.4512 47.7464 55.1106V67.13V67.1525Z" stroke="#6CE1C1" stroke-width="2" stroke-linecap="round" stroke-linejoin="round"/>
<path d="M39.9967 73.8757C36.9409 73.8757 34.4609 71.3642 34.4609 68.2696V67.1484H45.5324V68.2696C45.5324 71.3642 43.0524 73.8757 39.9967 73.8757Z" stroke="#6CE1C1" stroke-width="2" stroke-linecap="round" stroke-linejoin="round"/>
<path d="M32.25 55.9375H47.75" stroke="#6CE1C1" stroke-width="2" stroke-linecap="round" stroke-linejoin="round"/>
<path d="M36.6819 55.9406V30.1527C36.6819 28.2915 35.1983 26.7891 33.3605 26.7891C31.5226 26.7891 30.0391 28.2915 30.0391 30.1527C30.0391 32.0139 31.5226 33.5163 33.3605 33.5163H46.6462C48.4841 33.5163 49.9676 32.0139 49.9676 30.1527C49.9676 28.2915 48.4841 26.7891 46.6462 26.7891C44.8083 26.7891 43.3248 28.2915 43.3248 30.1527V55.9406" stroke="#6CE1C1" stroke-width="2" stroke-linecap="round" stroke-linejoin="round"/>
<path d="M32.25 61.5469H47.75" stroke="#6CE1C1" stroke-width="2" stroke-linecap="round" stroke-linejoin="round"/>
</svg>
