<svg width="80" height="80" viewBox="0 0 80 80" fill="none" xmlns="http://www.w3.org/2000/svg">
<g clip-path="url(#clip0_7123_78472)">
<path d="M43.8051 66.9806C44.2942 66.5897 59.2713 55.7798 49.2789 44.9121C49.2789 44.9121 45.8635 61.1191 30.8462 52.4659C30.8462 52.4659 30.8118 52.7016 30.7731 53.1292C30.2394 58.9216 32.2276 64.7407 35.8568 69.2995C41.9317 76.9295 51.8882 72.9437 57.6031 67.0145C61.2466 63.2348 63.6823 58.3598 64.7194 53.2647C70.8646 23.0356 41.6677 8.67188 41.6677 8.67188C46.2537 25.3884 37.1879 33.8087 32.7842 36.7938C31.3382 37.7733 29.472 37.9017 27.8984 37.1368C25.2748 35.8623 21.7303 33.0593 22.1979 27.3107C22.1979 27.3107 14.4375 38.2602 14.4375 49.9296C14.4375 50.2316 14.4404 50.5294 14.4447 50.823C14.6369 61.7585 21.5682 72.7193 33.2661 73.5972" stroke="#6CE1C1" stroke-width="2" stroke-miterlimit="10"/>
</g>
<defs>
<clipPath id="clip0_7123_78472">
<rect width="54" height="69" fill="white" transform="translate(13 6)"/>
</clipPath>
</defs>
</svg>
