<svg width="80" height="80" viewBox="0 0 80 80" fill="none" xmlns="http://www.w3.org/2000/svg">
<path d="M52 40V14.2857C52 11.9196 50.2083 10 48 10C45.7917 10 44 11.9196 44 14.2857V38.5714" stroke="#6CE1C1" stroke-width="2" stroke-miterlimit="10"/>
<path d="M35 36V11.35C35 8.94844 37.0156 7 39.5 7C41.9844 7 44 8.94844 44 11.35V36" stroke="#6CE1C1" stroke-width="2" stroke-miterlimit="10"/>
<path d="M27 39V14.35C27 11.9484 28.7917 10 31 10C33.2083 10 35 11.9484 35 14.35V39" stroke="#6CE1C1" stroke-width="2" stroke-miterlimit="10"/>
<path d="M37 64.0303V61.1818C37 52.5295 43.9529 45.5152 52.5294 45.5152V32.697C52.5294 29.5512 55.0582 27 58.1765 27H61V51.0038C61 55.7555 59.4312 60.37 56.5388 64.1193L52.9018 68.8371C51.7459 70.3379 51.1176 72.1004 51.1176 74" stroke="#6CE1C1" stroke-width="2" stroke-miterlimit="10"/>
<path d="M23 74V69.725C20.4033 66.0253 19 61.5241 19 56.9V21.275C19 18.9148 20.7917 17 23 17C25.2083 17 27 18.9148 27 21.275V32.675" stroke="#6CE1C1" stroke-width="2" stroke-miterlimit="10"/>
<path d="M23 70H28" stroke="#6CE1C1" stroke-width="2" stroke-miterlimit="10"/>
<path d="M34 46H52" stroke="#6CE1C1" stroke-width="2" stroke-miterlimit="10"/>
<path d="M26 46H31" stroke="#6CE1C1" stroke-width="2" stroke-miterlimit="10"/>
</svg>
