<svg width="100" height="100" viewBox="0 0 100 100" fill="none" xmlns="http://www.w3.org/2000/svg">
<path d="M53.6891 43.4722L32.1536 48.3333L5 36.6667L60.2434 25L88.3333 35.6944L70.5431 39.6968" stroke="#08265C" stroke-width="3"/>
<path d="M1.66406 46.0256L32.6191 58.3333L56.615 53.3377M96.6641 45L71.517 50.2353" stroke="#08265C" stroke-width="3"/>
<path d="M1.66406 57.6897L32.6191 69.9974L56.615 65.0018M96.6641 56.6641L70.5856 62.0933" stroke="#08265C" stroke-width="3"/>
<path d="M1.66406 69.3616L32.6191 81.6693L96.6641 68.3359" stroke="#08265C" stroke-width="3"/>
<path d="M30 31.6641L56.6667 43.8516V76.6641" stroke="#08265C" stroke-width="3"/>
<path d="M45.8359 28.3359L71.6693 39.3563V73.3359" stroke="#08265C" stroke-width="3"/>
<circle cx="23.3333" cy="76.3333" r="23.3333" fill="#1F61DD"/>
<path d="M24.5633 84.45H27.9933V80.9267H30.1867V78.01H27.9933V68H24.96L16 78.3833L16.5833 80.9267H24.5633V84.45ZM20.2233 78.01L24.5633 72.9233V78.01H20.2233Z" fill="white"/>
</svg>
