<svg width="100" height="100" viewBox="0 0 100 100" fill="none" xmlns="http://www.w3.org/2000/svg">
<rect x="11.6641" y="16.6641" width="13.3333" height="13.3333" stroke="#08265C" stroke-width="3"/>
<rect x="11.6641" y="43.3359" width="13.3333" height="13.3333" stroke="#08265C" stroke-width="3"/>
<rect x="11.6641" y="70" width="13.3333" height="13.3333" stroke="#08265C" stroke-width="3"/>
<path d="M35 23.3359H90" stroke="#08265C" stroke-width="3"/>
<path d="M35 50H90" stroke="#08265C" stroke-width="3"/>
<path d="M35 76.6641H90" stroke="#08265C" stroke-width="3"/>
<circle cx="23.3333" cy="76.3333" r="23.3333" fill="#1F61DD"/>
<path d="M17 83.5667H29.0867V80.4633H21.97L24.63 78.41C27.5233 76.17 28.9233 74.8167 28.9233 72.0867C28.9233 68.9833 26.6833 67 23.3 67C20.3833 67 18.82 68.19 17.21 70.3833L19.73 72.4133C20.9433 70.92 21.8067 70.22 23.0667 70.22C24.35 70.22 25.26 70.9667 25.26 72.3433C25.26 73.6967 24.4667 74.5833 22.4367 76.2633L17 80.72V83.5667Z" fill="white"/>
</svg>
