<svg width="100" height="100" viewBox="0 0 100 100" fill="none" xmlns="http://www.w3.org/2000/svg">
<circle cx="51.6667" cy="28.3307" r="11.6667" stroke="#08265C" stroke-width="3"/>
<circle cx="23.3359" cy="35" r="10" stroke="#08265C" stroke-width="3"/>
<circle cx="80" cy="35" r="10" stroke="#08265C" stroke-width="3"/>
<path d="M36.6641 81.6667V55C36.6641 46.7157 43.3798 40 51.6641 40V40C59.9483 40 66.6641 46.7157 66.6641 55V81.6667" stroke="#08265C" stroke-width="3"/>
<path d="M10 81.6667V58.3333C10 50.9695 15.9695 45 23.3333 45V45C30.6971 45 36.6667 50.9695 36.6667 58.3333V81.6667" stroke="#08265C" stroke-width="3"/>
<path d="M66.6641 81.6667V58.3333C66.6641 50.9695 72.6336 45 79.9974 45V45C87.3612 45 93.3307 50.9695 93.3307 58.3333V81.6667" stroke="#08265C" stroke-width="3"/>
<path d="M7.5 81.6641H95.8333" stroke="#08265C" stroke-width="3"/>
<circle cx="23.3333" cy="76.3333" r="23.3333" fill="#1F61DD"/>
<path d="M23.37 84.6133C27.01 84.6133 29.25 82.35 29.25 79.27C29.25 76.19 27.08 75.0233 24.8633 74.65L28.9933 70.7067V68H17.9567V71.08H24.3733L20.4767 75L21.0367 77.2867H22.53C24.5367 77.2867 25.7267 78.0333 25.7267 79.3633C25.7267 80.6233 24.77 81.3933 23.4167 81.3933C21.76 81.3933 20.5933 80.6933 19.4733 79.4333L17 81.79C18.4 83.4467 20.43 84.6133 23.37 84.6133Z" fill="white"/>
</svg>
